<svg width="123" height="620" viewBox="0 0 123 620" fill="none" xmlns="http://www.w3.org/2000/svg">
<path fill-rule="evenodd" clip-rule="evenodd" d="M123 21.9818C123 9.8416 113.158 0 101.018 0H21.9818C9.8416 0 0 9.84158 0 21.9818V598.018C0 610.158 9.8416 620 21.9818 620H101.018C113.158 620 123 610.158 123 598.018V21.9818ZM60.5 53C44.7599 53 32 65.7599 32 81.5C32 91.7545 37.4157 100.744 45.543 105.764C47.5648 107.013 49 109.118 49 111.494V279.506C49 281.882 47.5648 283.987 45.543 285.236C37.4157 290.256 32 299.246 32 309.5C32 319.754 37.4157 328.744 45.543 333.764C47.5648 335.013 49 337.118 49 339.494V507.506C49 509.882 47.5648 511.987 45.543 513.236C37.4157 518.256 32 527.246 32 537.5C32 553.24 44.7599 566 60.5 566C76.2401 566 89 553.24 89 537.5C89 527.246 83.5843 518.256 75.457 513.236C73.4352 511.987 72 509.882 72 507.506V339.494C72 337.118 73.4352 335.013 75.457 333.764C83.5843 328.744 89 319.754 89 309.5C89 299.246 83.5843 290.256 75.457 285.236C73.4352 283.987 72 281.882 72 279.506V111.494C72 109.118 73.4352 107.013 75.457 105.764C83.5843 100.744 89 91.7545 89 81.5C89 65.7599 76.2401 53 60.5 53Z" fill="white" fill-opacity="0.11"/>
</svg>
